<svg xmlns="http://www.w3.org/2000/svg" viewBox="0 0 920 680" width="920" height="680">
  <defs>
    <!-- GitHub Flex Purple gradient -->
    <linearGradient id="bgGradient" x1="0%" y1="0%" x2="100%" y2="100%">
      <stop offset="0%" style="stop-color:#0d1117"/>
      <stop offset="40%" style="stop-color:#161b22"/>
      <stop offset="100%" style="stop-color:#3d1f6d"/>
    </linearGradient>

    <!-- Subtle purple glow -->
    <radialGradient id="purpleGlow" cx="75%" cy="50%" r="50%">
      <stop offset="0%" style="stop-color:#8957e5;stop-opacity:0.2"/>
      <stop offset="100%" style="stop-color:#8957e5;stop-opacity:0"/>
    </radialGradient>

    <!-- Decorative circles -->
    <radialGradient id="circleGlow" cx="50%" cy="50%" r="50%">
      <stop offset="0%" style="stop-color:#a371f7;stop-opacity:0.25"/>
      <stop offset="100%" style="stop-color:#a371f7;stop-opacity:0"/>
    </radialGradient>
  </defs>

  <!-- Background -->
  <rect width="920" height="680" fill="url(#bgGradient)"/>
  <rect width="920" height="680" fill="url(#purpleGlow)"/>

  <!-- Decorative background circles -->
  <circle cx="150" cy="550" r="200" fill="url(#circleGlow)" opacity="0.5"/>
  <circle cx="800" cy="100" r="150" fill="url(#circleGlow)" opacity="0.3"/>

  <!-- Left side: Content -->
  <g transform="translate(50, 120)">
    <!-- Logo + Name -->
    <g transform="translate(0, 0)">
      <!-- GitHub Flex Logo -->
      <g transform="translate(0, -8)">
        <rect width="44" height="44" rx="6" fill="#8957e5"/>
        <g transform="translate(10, 10) scale(0.95)" fill="#ffffff">
          <path d="m12.301 0h.093c2.242 0 4.34.613 6.137 1.68l-.055-.031c1.871 1.094 3.386 2.609 4.449 4.422l.031.058c1.04 1.769 1.654 3.896 1.654 6.166 0 5.406-3.483 10-8.327 11.658l-.087.026c-.063.02-.135.031-.209.031-.162 0-.312-.054-.433-.144l.002.001c-.128-.115-.208-.281-.208-.466v-.014q0-.048.008-1.226t.008-2.154c.007-.075.011-.161.011-.249 0-.792-.323-1.508-.844-2.025.618-.061 1.176-.163 1.718-.305l-.076.017c.573-.16 1.073-.373 1.537-.642l-.031.017c.508-.28.938-.636 1.292-1.058l.006-.007c.372-.476.663-1.036.84-1.645l.009-.035c.209-.683.329-1.468.329-2.281 0-.045 0-.091-.001-.136v.007c0-.022.001-.047.001-.072 0-1.248-.482-2.383-1.269-3.23l.003.003c.168-.44.265-.948.265-1.479 0-.649-.145-1.263-.404-1.814l.011.026c-.115-.022-.246-.035-.381-.035-.334 0-.649.078-.929.216l.012-.005c-.568.21-1.054.448-1.512.726l.038-.022-.609.384c-.922-.264-1.981-.416-3.075-.416s-2.153.152-3.157.436l.081-.02q-.256-.176-.681-.433c-.373-.214-.814-.421-1.272-.595l-.066-.022c-.293-.154-.64-.244-1.009-.244-.124 0-.246.01-.364.03l.013-.002c-.248.524-.393 1.139-.393 1.788 0 .531.097 1.04.275 1.509l-.01-.029c-.785.844-1.266 1.979-1.266 3.227v.076c-.001.039-.001.084-.001.13 0 .809.12 1.591.344 2.327l-.015-.057c.189.643.476 1.202.85 1.693l-.009-.013c.354.435.782.793 1.267 1.062l.022.011c.432.252.933.465 1.46.614l.046.011c.466.125 1.024.227 1.595.284l.046.004c-.431.428-.718 1-.784 1.638l-.001.012c-.207.101-.448.183-.699.236l-.021.004c-.256.051-.549.08-.85.08h-.066c-.394-.008-.756-.136-1.055-.348l.006.004c-.371-.259-.671-.595-.881-.986l-.007-.015c-.198-.336-.459-.614-.768-.827l-.009-.006c-.225-.169-.49-.301-.776-.38l-.016-.004-.32-.048c-.023-.002-.05-.003-.077-.003-.14 0-.273.028-.394.077l.007-.003q-.128.072-.08.184c.039.086.087.16.145.225l-.001-.001c.061.072.13.135.205.19l.003.002.112.08c.283.148.516.354.693.603l.004.006c.191.237.359.505.494.792l.01.024.16.368c.135.402.38.738.7.981l.005.004c.3.234.662.402 1.057.478l.016.002c.33.064.714.104 1.106.112h.007c.045.002.097.002.15.002.261 0 .517-.021.767-.062l-.027.004.368-.064q0 .609.008 1.418t.008.873v.014c0 .185-.08.351-.208.466-.119.089-.268.143-.431.143-.075 0-.147-.011-.214-.032l.005.001c-4.929-1.689-8.409-6.283-8.409-11.69 0-2.268.612-4.393 1.681-6.219l-.032.058c1.094-1.871 2.609-3.386 4.422-4.449l.058-.031c1.739-1.034 3.835-1.645 6.073-1.645h.098z"/>
        </g>
        <g stroke="#ffffff" stroke-width="1.5" stroke-linecap="round" stroke-linejoin="round" fill="none">
          <path d="M5 12 L5 5 L12 5"/>
          <path d="M32 5 L39 5 L39 12"/>
          <path d="M5 32 L5 39 L12 39"/>
          <path d="M39 32 L39 39 L32 39"/>
        </g>
      </g>
      <text x="54" y="25" font-family="system-ui, -apple-system, sans-serif" font-size="22" font-weight="600" fill="#a371f7">GitHub Flex</text>
    </g>

    <!-- Main headline -->
    <text x="0" y="100" font-family="system-ui, -apple-system, sans-serif" font-size="48" font-weight="700" fill="#ffffff">
      Supercharge
    </text>
    <text x="0" y="158" font-family="system-ui, -apple-system, sans-serif" font-size="48" font-weight="700" fill="#a371f7">
      GitHub
    </text>

    <!-- Subheadline -->
    <text x="0" y="210" font-family="system-ui, -apple-system, sans-serif" font-size="18" fill="#8b949e">
      Wide layout, lightbox, GIFs, and more
    </text>

    <!-- Feature list -->
    <g transform="translate(0, 260)">
      <g transform="translate(0, 0)">
        <circle cx="10" cy="10" r="10" fill="rgba(137,87,229,0.2)"/>
        <text x="10" y="14" font-family="system-ui, sans-serif" font-size="10" fill="#a371f7" text-anchor="middle">&#x2713;</text>
        <text x="30" y="14" font-family="system-ui, sans-serif" font-size="14" fill="#e6edf3">Wide Layout mode</text>
      </g>

      <g transform="translate(0, 36)">
        <circle cx="10" cy="10" r="10" fill="rgba(137,87,229,0.2)"/>
        <text x="10" y="14" font-family="system-ui, sans-serif" font-size="10" fill="#a371f7" text-anchor="middle">&#x2713;</text>
        <text x="30" y="14" font-family="system-ui, sans-serif" font-size="14" fill="#e6edf3">Image Lightbox</text>
      </g>

      <g transform="translate(0, 72)">
        <circle cx="10" cy="10" r="10" fill="rgba(137,87,229,0.2)"/>
        <text x="10" y="14" font-family="system-ui, sans-serif" font-size="10" fill="#a371f7" text-anchor="middle">&#x2713;</text>
        <text x="30" y="14" font-family="system-ui, sans-serif" font-size="14" fill="#e6edf3">GIF Picker</text>
      </g>

      <g transform="translate(0, 108)">
        <circle cx="10" cy="10" r="10" fill="rgba(137,87,229,0.2)"/>
        <text x="10" y="14" font-family="system-ui, sans-serif" font-size="10" fill="#a371f7" text-anchor="middle">&#x2713;</text>
        <text x="30" y="14" font-family="system-ui, sans-serif" font-size="14" fill="#e6edf3">Sidebar Toggle</text>
      </g>
    </g>
  </g>

  <!-- Right side: PLACEHOLDER -->
  <g transform="translate(440, 40)">
    <rect x="0" y="0" width="440" height="600" rx="12" fill="rgba(22,27,34,0.8)" stroke="#8957e5" stroke-width="2" stroke-dasharray="10,5"/>

    <text x="220" y="280" font-family="system-ui, sans-serif" font-size="18" fill="#a371f7" text-anchor="middle">SCREENSHOT PLACEHOLDER</text>
    <text x="220" y="310" font-family="system-ui, sans-serif" font-size="14" fill="#8b949e" text-anchor="middle">440 x 600 px</text>

    <!-- Corner guides -->
    <path d="M 16 0 L 0 0 L 0 16" fill="none" stroke="#a371f7" stroke-width="1.5"/>
    <path d="M 424 0 L 440 0 L 440 16" fill="none" stroke="#a371f7" stroke-width="1.5"/>
    <path d="M 0 584 L 0 600 L 16 600" fill="none" stroke="#a371f7" stroke-width="1.5"/>
    <path d="M 440 584 L 440 600 L 424 600" fill="none" stroke="#a371f7" stroke-width="1.5"/>
  </g>
</svg>
